# xmcd
#
# Track frame offsets:
# 183
# 14433
# 27555
# 42138
# 55060
# 66438
# 77658
# 90483
# 104550
# 117863
# 129395
# 140495
# 153138
# 164015
# 177158
# 189208
# 200353
# 212413
#
# Disc length: 3025 seconds
#
#
# Revision: 0
# Processed by: cddbd v1.5.2PL0 Copyright (c) Steve Scherf et al.
# Submitted via: FreeRIP 2.40 
#
DISCID=ef0bcf12
DTITLE=Roosevelt Sykes - Rock It
DYEAR=1998
DGENRE=Blues
TTITLE0=Until The Cows Come Home
TTITLE1=Drivin' Wheel
TTITLE2=Living in a Different World
TTITLE3=Wintertime Blues
TTITLE4=Stop Her Poppa
TTITLE5=Blues 'N' Boogie
TTITLE6=My Baby Is Gone
TTITLE7=That's My Gal
TTITLE8=Rock It
TTITLE9=Candy Man Blues
TTITLE10=Why Should I Cry
TTITLE11=Green Onion Top
TTITLE12=Sweet Old Chicago
TTITLE13=You Can't Be Lucky All The Time
TTITLE14=Hush Oh Hush
TTITLE15=Crazy Fox
TTITLE16=Little Same
TTITLE17=Anytime Is The Right Time
EXTD=
EXTT0=
EXTT1=
EXTT2=
EXTT3=
EXTT4=
EXTT5=
EXTT6=
EXTT7=
EXTT8=
EXTT9=
EXTT10=
EXTT11=
EXTT12=
EXTT13=
EXTT14=
EXTT15=
EXTT16=
EXTT17=
PLAYORDER=
